<svg xmlns="http://www.w3.org/2000/svg" width="512" height="512" xmlns:v="https://vecta.io/nano"><path fill="#187dcb" d="M322.154 12.86c9.26 3.614 18.672 1.142 28.159-.708l5.757-1.084 8.906-1.705a1862.29 1862.29 0 0 1 8.712-1.648l2.64-.52C382.5 6.046 388.724 5.352 395 6c3.166 2.186 3.79 3.369 5 7 .083 1.992.107 3.987.098 5.98l-.01 3.526-.025 3.681-.014 3.717L400 39l2.1-.027 21.606-.193 8.066-.082 11.587-.089 3.65-.062 3.396-.001 2.988-.027c3.416.63 4.572 1.695 6.607 4.481.481 2.455.481 2.455.454 5.228v3.153l-.063 3.385-.018 3.48a1416.9 1416.9 0 0 1-.123 11.004l-.055 7.46L460 95l8.055-5.676 2.276-1.602a1015.403 1015.403 0 0 0 16.74-12.077c3.403-1.911 6.048-2.425 9.929-2.645 2.88 1.216 4.452 2.303 6.375 4.75.955 3.438.53 5.814-.375 9.25-3.863 4.431-8.483 7.687-13.25 11.063l-2.367 1.69a2262.636 2262.636 0 0 1-4.905 3.488l-7.333 5.24-4.582 3.269-2.167 1.555-2.017 1.43-1.764 1.256C463 117 463 117 460 118v59l28.51-.18 5.377-.015 2.801-.031c5.42-.002 9.624.197 14.097 3.574 2 2.72 1.68 5.223 1.578 8.492C512 191 512 191 510.125 193.5c-3.123 2.204-4.799 2.624-8.575 2.614h-2.79l-3.018-.016-3.085-.005-9.782-.03-6.621-.014L460 196a709.729 709.729 0 0 0-.593 22.404 307.305 307.305 0 0 1-.268 10.408c-1.202 15.05-1.202 15.05 3.667 28.668 4.383 4.099 9.32 6.745 14.727 9.26 4.126 2.108 7.659 4.957 11.28 7.822l3.769 2.88 1.735 1.32a109.79 109.79 0 0 0 5.042 3.468c3.842 2.575 3.842 2.575 4.641 5.77.145 4.389-.25 7.142-3.187 10.5-3.326 1.774-5.084 1.813-8.813 1.5-2.36-1.074-2.36-1.074-4.75-2.688l-2.828-1.898-19.604-14.105A162.127 162.127 0 0 0 460 278l.027 1.947.193 20.05.082 7.484.089 10.753.062 3.385.001 3.153.027 2.773c-.64 3.27-1.884 4.426-4.481 6.455-3.042 1.175-5.988 1.121-9.228 1.114h-3.153l-3.385-.016-3.48-.005-11.004-.03-7.46-.014L400 335l.048 2.2.14 9.925.076 3.46c.094 10.849.094 10.849-3.264 15.415-4.289 2.059-7.24 2.122-11.742 1.031l-2.425-.576L381 366c-1.352 46.212 6.744 90.681 30.203 130.844C416 505.27 416 505.27 416 508H197l-8-23c-1.761-3.932-3.433-7.584-5.5-11.313l-1.411-2.614C178.65 464.846 174.913 459.175 170 454l-2.094-2.258c-4.852-5.228-4.852-5.228-10.906-8.742-5.566.438-10.54 1.621-15.82 3.441l-4.519 1.509-2.366.798c-12.897 4.34-25.836 8.422-38.982 11.94l-3.644.988C81.383 464.369 71.98 466.713 62 462c-6.846-4.26-9.721-9.42-12-17l-.68-2.031c-2.54-8.49-1.464-16.926.223-25.469 1.16-6.346.566-10.818-2.543-16.5-2.318-2.318-4.63-3.812-7.547-5.293-2.69-1.417-5.097-2.783-7.453-4.707-1.331-5.415-.11-8.182 2.5-13a164.3 164.3 0 0 1 2.5-4l-1.676-.758c-2.74-1.465-5.064-3.201-7.511-5.117l-2.668-2.055c-2.302-2.222-2.76-2.983-3.145-6.07.605-1.967.605-1.967 1.617-4.004l1.09-2.244 1.168-2.315 2.242-4.566 1.02-2.033c2.171-4.622 2.44-8.821 1.863-13.838-2.757-6.392-8.199-8.746-14-12C.871 309.375.871 309.375-.531 303.941c-.657-9.473 6.143-17.062 11.719-24.066C21.743 266.306 30.625 252.003 39 237l1.328-2.374 3.735-6.814 1.12-2.03c2.994-5.619 5.588-11.105 3.755-17.47-2.025-3.46-3.98-5.617-6.938-8.312-11.02-10.35-11.02-10.35-11.39-18.367.075-6.919 2.872-12.65 5.64-18.883 3.984-9.129 7.22-18.112 9.75-27.75l1.676-6.273.808-3.034C51.47 114.637 54.874 104.242 60 94l.925-1.895c16.395-33.367 43.51-56.678 78.57-68.867C193.21 5.602 267.956-8.766 322.155 12.86z"/><path fill="#f8aa01" d="M397.625 7.813c2.382 3.79 2.494 6.789 2.473 11.167l-.01 3.526-.026 3.681-.013 3.717A3143.92 3143.92 0 0 1 400 39l2.1-.027 21.606-.193 8.066-.082 11.587-.089 3.65-.062 3.396-.001 2.988-.027c3.416.63 4.572 1.695 6.607 4.481.481 2.455.481 2.455.454 5.228v3.153l-.063 3.385-.018 3.48a1416.9 1416.9 0 0 1-.123 11.004l-.055 7.46L460 95l8.055-5.676 2.276-1.602a1015.403 1015.403 0 0 0 16.74-12.077c3.403-1.911 6.048-2.425 9.929-2.645 2.88 1.216 4.452 2.303 6.375 4.75.955 3.438.53 5.814-.375 9.25-3.863 4.431-8.483 7.687-13.25 11.063l-2.367 1.69a2262.633 2262.633 0 0 1-4.905 3.488l-7.333 5.24-4.582 3.269-2.167 1.555-2.017 1.43-1.764 1.256C463 117 463 117 460 118v59l28.51-.18 5.377-.015 2.801-.031c5.42-.002 9.624.197 14.097 3.574 2 2.72 1.68 5.223 1.578 8.492C512 191 512 191 510.125 193.5c-3.123 2.204-4.799 2.624-8.575 2.614h-2.79l-3.018-.016-3.085-.005-9.782-.03-6.621-.014L460 196a709.729 709.729 0 0 0-.593 22.404 307.305 307.305 0 0 1-.268 10.408c-1.202 15.05-1.202 15.05 3.667 28.668 4.383 4.099 9.32 6.745 14.727 9.26 4.126 2.108 7.659 4.957 11.28 7.822a1368.273 1368.273 0 0 0 5.504 4.2 109.79 109.79 0 0 0 5.042 3.468c3.842 2.575 3.842 2.575 4.641 5.77.145 4.389-.25 7.142-3.188 10.5-3.325 1.774-5.083 1.813-8.812 1.5-2.36-1.074-2.36-1.074-4.75-2.688l-2.828-1.898-19.604-14.105A162.127 162.127 0 0 0 460 278l.027 1.947.193 20.05.082 7.484.089 10.753.062 3.385.001 3.153.027 2.773c-.64 3.27-1.884 4.426-4.481 6.455-3.042 1.175-5.988 1.121-9.228 1.114h-3.153l-3.385-.016-3.48-.005-11.004-.03-7.46-.014L400 335l.048 2.2.14 9.925.076 3.46c.094 10.807.094 10.807-3.264 15.415-6.505 3.42-12.88 1.194-19.75-.313l-8.395-1.718-2.312-.473c-9.542-1.933-19.134-3.576-28.725-5.243a3899.58 3899.58 0 0 1-60.083-10.934 1894.826 1894.826 0 0 0-30.567-5.557l-3.164-.55-15.007-2.562-5.352-.923-2.443-.397c-4.286-.753-7.701-1.572-11.202-4.33-1.895-3.05-2.25-5.37-2.252-8.932l-.015-3.025.013-3.317-.01-3.528.003-9.698-.008-10.459-.002-20.488.003-16.649v-2.391l-.003-4.81.012-45.123-.002-38.733a40004.282 40004.282 0 0 1-.007-49.751l.001-2.382-.006-16.633.007-20.263V66.475l.012-11.201-.013-3.317.015-3.025.001-2.612c.28-2.58.832-4.153 2.251-6.32 5.246-2.812 10.57-3.901 16.39-4.945l2.778-.519a2262.84 2262.84 0 0 1 9.082-1.661l6.415-1.185 49.899-8.883 40.061-7.494 32.21-6.345 4.24-.805c21.166-4.068 21.166-4.068 26.55-.35z"/><path fill="#f7e774" d="M361.7 49.276c3.736 4.424 2.954 9.14 2.868 14.745l.002 3.725-.063 10.103-.04 10.562a3847.07 3847.07 0 0 1-.107 19.995l-.108 22.767L364 178l-5.387-6.879c-3.757-4.863-7.603-7.647-13.613-9.121-7.88-.876-15.568-1.134-22 4-6.257 5.725-9.474 11.414-10.438 19.812.385 8.15 3.583 15.179 9.461 20.75 5.131 3.732 9.561 4.97 15.852 4.875l2.148-.027c6.91-.229 11.024-1.533 15.934-6.316 2.907-3.173 5.24-6.172 7.043-10.094h1l.207 49.078.095 22.787.074 19.86.047 10.517.031 11.737.044 3.527-.017 3.23.011 2.804c-.646 3.229-1.956 4.428-4.492 6.46-7.193 1.367-14.976-.476-22.05-1.906l-3.144-.607-10.119-1.987a6758.29 6758.29 0 0 0-14.242-2.758l-3.635-.702-24.318-4.345-3.211-.538-12.193-2.006-8.303-1.362-2.445-.371c-4.934-.84-8.385-2.152-12.34-5.418-1.33-3.99-1.152-7.822-1.154-11.983l-.013-2.818-.026-9.39-.025-6.716-.055-22.085-.017-7.595a31597.52 31597.52 0 0 1-.062-41.834l-.088-33.007-.071-33.884-.048-19.026a2552.9 2552.9 0 0 1-.025-17.892l-.025-6.573.001-8.96-.042-2.638c.058-4.386.23-6.07 3.048-9.62 2.566-1.952 4.04-2.748 7.17-3.304l2.75-.52 3.026-.51 3.264-.601 7.313-1.317 13.196-2.433a4511.74 4511.74 0 0 1 22.586-4.18l15.734-2.897 10.265-1.881 4.85-.896c20.525-3.821 20.525-3.821 26.148-1.164z"/><path fill="#121e2a" d="M399 39l22.088-.207 10.257-.095 11.796-.089 3.715-.062 3.457-.001 3.042-.027c3.374.614 4.55 1.822 6.645 4.481.481 2.455.481 2.455.454 5.228v3.153l-.063 3.385-.018 3.48a1416.9 1416.9 0 0 1-.123 11.004l-.055 7.46L460 95l8.055-5.676 2.276-1.602a1015.403 1015.403 0 0 0 16.74-12.077c3.403-1.911 6.048-2.425 9.929-2.645 2.88 1.216 4.452 2.303 6.375 4.75.955 3.438.53 5.814-.375 9.25-3.863 4.431-8.483 7.687-13.25 11.063l-2.367 1.69a2262.633 2262.633 0 0 1-4.905 3.488l-7.333 5.24-4.582 3.269-2.167 1.555-2.017 1.43-1.764 1.256C463 117 463 117 460 118v59l28.51-.18 5.377-.015 2.801-.031c5.42-.002 9.624.197 14.097 3.574 2 2.72 1.68 5.223 1.578 8.492C512 191 512 191 510.125 193.5c-3.123 2.204-4.799 2.624-8.575 2.614h-2.79l-3.018-.016-3.085-.005-9.782-.03-6.621-.014L460 196a709.729 709.729 0 0 0-.593 22.404 307.305 307.305 0 0 1-.268 10.408c-1.202 15.05-1.202 15.05 3.667 28.668 4.383 4.099 9.32 6.745 14.727 9.26 4.126 2.108 7.659 4.957 11.28 7.822a1368.273 1368.273 0 0 0 5.504 4.2 109.79 109.79 0 0 0 5.042 3.468c3.842 2.575 3.842 2.575 4.641 5.77.145 4.389-.25 7.142-3.188 10.5-3.325 1.774-5.083 1.813-8.812 1.5-2.36-1.074-2.36-1.074-4.75-2.688l-2.828-1.898-19.604-14.105A162.127 162.127 0 0 0 460 278l.027 1.947.193 20.05.082 7.484.089 10.753.062 3.385.001 3.153.027 2.773c-.64 3.27-1.884 4.426-4.481 6.455-3.035 1.17-5.98 1.127-9.212 1.13l-3.144.009-3.374-.006-3.474.003c-2.42 0-4.84-.001-7.26-.006-3.72-.005-7.44 0-11.159.007a8272.01 8272.01 0 0 1-7.045-.004l-3.393.006-3.116-.01-2.756-.002C400 335 400 335 399 334a76.4 76.4 0 0 1-.123-4.73l-.006-3.12.009-3.47-.003-3.653.007-10.083.002-10.857.008-18.826.012-27.218.019-44.156.02-42.904v-2.67l.005-13.257L399 39z"/><path fill="#c9e5f1" d="M183.063 44.063c2.453 3.72 2.719 5.56 1.937 9.937-4.178 5.684-9.285 6.482-15.813 7.938C142.333 68.466 121.127 78.948 106 103c-6.81 11.71-12.24 24.413-15.129 37.66-1.096 2.944-2.424 4.389-4.871 6.34-2.746.73-5.223.553-8 0-3.197-2.05-3.853-3.394-4.746-7.074-.315-4.873.66-8.562 2.121-13.176l.824-2.64c9.287-28.598 26.717-54.02 53.743-68.223 40.513-20.315 40.513-20.315 53.12-11.825Z"/><path fill="#141f2a" d="M351.965 163.531c5.417 3.91 10.074 9.011 12.035 15.469.844 8.127.927 16.173-4 23-5.234 5.635-9.885 9.588-17.707 10.371-13.336.4-13.336.4-18.621-3.762L322 207l-1.922-1.797c-5.366-5.543-8.026-11.495-8.515-19.203.401-8.43 5.38-15.467 11.437-21 7.824-6.241 20.321-5.993 28.965-1.469Z"/><path fill="#f6d60a" d="M438 239c3.226 1.66 5.974 3.815 8.813 6.063l4.8 3.628 2.307 1.759c2.448 1.824 4.973 3.462 7.58 5.05 5.678 3.516 11.04 7.434 16.43 11.37l11.937 8.497 2.357 1.628a553.328 553.328 0 0 0 4.47 3.047l2.025 1.4 1.779 1.209c2.313 2.077 3.419 4.255 3.654 7.349-.405 3.776-.771 5.565-3.34 8.5-3.325 1.774-5.083 1.813-8.812 1.5-2.36-1.074-2.36-1.074-4.75-2.688l-2.828-1.898-19.604-14.105A162.127 162.127 0 0 0 460 278v-2l-1.738-.828c-4.016-2.081-7.662-4.74-11.387-7.297l-2.576-1.767C428.426 255.14 428.426 255.14 425 250c.137-3.767.517-6.247 2.563-9.438 3.446-2.209 6.512-2.315 10.437-1.562zm61-165c3.249 2.223 3.896 3.62 4.938 7.438.073 4.195-.44 5.25-2.938 8.562-2.392 2.027-4.96 3.755-7.563 5.5l-4.605 3.168-2.408 1.65c-3.982 2.763-7.885 5.635-11.799 8.495-5.459 3.967-10.946 7.773-16.71 11.289-2.44 1.588-4.751 3.241-7.08 4.984l-2.259 1.67a250.745 250.745 0 0 0-4.389 3.334c-4.962 3.663-8.014 4.667-14.187 3.91-3.332-2.136-3.893-3.633-5-7.438 0-4.517.927-5.315 4-8.562 2.554-2.054 5.23-3.904 7.938-5.75l2.272-1.578 10.657-7.313 1.774-1.215 4.722-3.207c2.623-1.824 2.623-1.824 4.59-3.894 2.594-2.59 5.492-4.637 8.485-6.73l1.84-1.301L477 83l1.89-1.323C492.076 72.448 492.076 72.448 499 74z"/><path fill="#f7d70a" d="M465.59 176.938l14.928-.111 5.952-.036 8.436-.021 2.56-.022c5.125.02 9.096.412 13.32 3.6 2 2.72 1.678 5.223 1.577 8.492C512 191 512 191 510.125 193.5c-4.317 3.047-8.203 2.644-13.328 2.633l-2.843.005a2567.09 2567.09 0 0 1-9.204-.013l-3.144-.009-18.742-.1-7.898-.022a880.954 880.954 0 0 1-12.529-.119l-3.663.008c-7.74-.182-7.74-.182-10.64-2.15-2.523-2.807-3.129-4.584-3.259-8.358 1.41-4.23 2.257-5.144 6.125-7.375 4.01-.68 8.002-.702 12.062-.75l3.727-.083 10.72-.145 8.08-.084z"/><path fill="#c6e3f0" d="M74 170c2.438 1.625 2.438 1.625 4 4 .594 4.081.413 6.24-1.563 9.875-3.253 2.836-5.133 3.273-9.437 3.125-3.438-1.938-3.438-1.938-6-5-.794-3.066-.518-4.736 0-8 3.94-5.122 6.82-5.385 13-4Z"/></svg>